<svg xmlns="http://www.w3.org/2000/svg" viewBox="0 0 650 500"><defs><style>.cls-1{fill:#fafafa;}.cls-2,.cls-4,.cls-5,.cls-6,.cls-7{fill:none;}.cls-2{stroke:#888;}.cls-3{isolation:isolate;fill:#666;}.cls-10,.cls-3{font-size:18px;font-family:Helvetica, Helvetica;}.cls-4{stroke:#000;stroke-opacity:0;}.cls-5{stroke:#bbb;stroke-width:0.5px;}.cls-6{stroke:#f38c21;}.cls-6,.cls-7{stroke-miterlimit:10;stroke-width:3px;}.cls-7{stroke:#09f;}.cls-8{fill:#09f;}.cls-9{font-size:28px;fill:#222;}.cls-11,.cls-13,.cls-9{font-family:Helvetica-Light, Helvetica;}.cls-10{fill:#333;}.cls-11{font-size:12px;fill:#444;}.cls-12{fill:#f38c21;}.cls-13{font-size:11px;}</style></defs><title>Artboard 1</title><g id="Background"><rect class="cls-1" x="-6" y="-9" width="683" height="555.26"/></g><g id="Layer_1" data-name="Layer 1"><path class="cls-2" d="M29,415.5h6.5v-280H29"/><line class="cls-2" x1="35" y1="415.5" x2="29" y2="415.5"/><text class="cls-3" transform="translate(15.99 421.26)">0</text><line class="cls-2" x1="35" y1="380.5" x2="29" y2="380.5"/><text class="cls-3" transform="translate(15.99 386.26)">5</text><line class="cls-2" x1="35" y1="345.5" x2="29" y2="345.5"/><text class="cls-3" transform="translate(5.98 351.26)">10</text><line class="cls-2" x1="35" y1="310.5" x2="29" y2="310.5"/><text class="cls-3" transform="translate(5.98 316.26)">15</text><line class="cls-2" x1="35" y1="275.5" x2="29" y2="275.5"/><text class="cls-3" transform="translate(5.98 281.26)">20</text><line class="cls-2" x1="35" y1="240.5" x2="29" y2="240.5"/><text class="cls-3" transform="translate(5.98 246.26)">25</text><line class="cls-2" x1="35" y1="205.5" x2="29" y2="205.5"/><text class="cls-3" transform="translate(5.98 211.26)">30</text><line class="cls-2" x1="35" y1="170.5" x2="29" y2="170.5"/><text class="cls-3" transform="translate(5.98 176.26)">35</text><line class="cls-2" x1="35" y1="135.5" x2="29" y2="135.5"/><text class="cls-3" transform="translate(5.98 141.26)">40</text><path class="cls-2" d="M35.5,421v-5.5h585V421"/><line class="cls-2" x1="67.1" y1="415" x2="67.1" y2="421"/><text class="cls-3" transform="translate(47.08 436.78)">1980</text><line class="cls-2" x1="146.19" y1="415" x2="146.19" y2="421"/><text class="cls-3" transform="translate(126.17 436.78)">1985</text><line class="cls-2" x1="225.23" y1="415" x2="225.23" y2="421"/><text class="cls-3" transform="translate(205.21 436.78)">1990</text><line class="cls-2" x1="304.28" y1="415" x2="304.28" y2="421"/><text class="cls-3" transform="translate(284.26 436.78)">1995</text><line class="cls-2" x1="383.32" y1="415" x2="383.32" y2="421"/><text class="cls-3" transform="translate(363.3 436.78)">2000</text><line class="cls-2" x1="462.41" y1="415" x2="462.41" y2="421"/><text class="cls-3" transform="translate(442.39 436.78)">2005</text><line class="cls-2" x1="541.46" y1="415" x2="541.46" y2="421"/><text class="cls-3" transform="translate(521.43 436.78)">2010</text><line class="cls-2" x1="620.5" y1="415" x2="620.5" y2="421"/><text class="cls-3" transform="translate(600.48 436.78)">2015</text><path class="cls-4" d="M620,415.5H35.5v-280H620"/><line class="cls-5" x1="35" y1="415.5" x2="620" y2="415.5"/><line class="cls-5" x1="35" y1="380.5" x2="620" y2="380.5"/><line class="cls-5" x1="35" y1="345.5" x2="620" y2="345.5"/><line class="cls-5" x1="35" y1="310.5" x2="620" y2="310.5"/><line class="cls-5" x1="35" y1="275.5" x2="620" y2="275.5"/><line class="cls-5" x1="35" y1="240.5" x2="620" y2="240.5"/><line class="cls-5" x1="35" y1="205.5" x2="620" y2="205.5"/><line class="cls-5" x1="35" y1="170.5" x2="620" y2="170.5"/><line class="cls-5" x1="35" y1="135.5" x2="620" y2="135.5"/><path class="cls-6" d="M35,387.35l15.8-1.89,15.8-4.69,15.84-2.66,15.8-1.68,15.8-.63,15.8-1.05,15.84-.07,15.8-3.78,15.8-1.82,15.8-3.22,15.84-3.64,15.8-2.24,15.8-6,15.8-4.69,15.84-6,15.8-1.68,15.8-2.94,15.8-.77,15.84-2.31,15.8-.77,15.8-.63,15.8-2.1,15.84,1.47,15.8-3,15.8-3.22,15.8-2.94,15.84-3.29,15.8-2.17,15.8,2.1,15.8-.63,15.84.77,15.8,1,15.8,3.29,15.8,3.29,15.84-.35,15.8-6.79,15.8,4.06"/><path class="cls-7" d="M66.6,273l158.13-28.56,158.09-45.57L541,161.25l79-16"/><circle class="cls-8" cx="66.6" cy="273.04" r="5"/><circle class="cls-8" cx="224.73" cy="244.48" r="5"/><circle class="cls-8" cx="382.82" cy="198.91" r="5"/><circle class="cls-8" cx="540.96" cy="161.25" r="5"/><circle class="cls-8" cx="620" cy="145.22" r="5"/><text class="cls-9" transform="translate(5.98 35)">Minority representation in newsrooms</text><text class="cls-10" transform="translate(7 65.94)">In newsrooms, minority populations stagnate, but continue to rise in the coun<tspan x="611.35" y="0">-</tspan><tspan x="0" y="21.6">try as a whole.</tspan></text><text class="cls-11" transform="translate(18 452.64)">Source: Minnesota Population Center. National Historical Geographic Information. American Society of News Editors.<tspan x="0" y="14.4">Note: Population data 1980 - 2010 from US Decennial Census. 2015 figure from American Community Survey. </tspan></text></g><g id="Legend"><rect class="cls-1" x="476.95" y="193.91" width="138.05" height="66.09"/><rect class="cls-8" x="447.87" y="196.61" width="22.87" height="22.87"/><rect class="cls-12" x="447.87" y="230.52" width="22.87" height="22.87"/><text class="cls-13" transform="translate(476.95 205.48)">Percent minority <tspan x="0" y="13.2">poulation in US</tspan></text><text class="cls-13" transform="translate(476.95 238.96)">Percent minority population <tspan x="0" y="13.2">in newsroom workforce</tspan></text></g></svg>